# xmcd
#
# Track frame offsets:
#	150
#	18137
#	36419
#	54652
#	77539
#	95487
#	112984
#	126996
#	146009
#	165497
#	182278
#	202929
#	223786
#	242020
#	264903
#
# Disc length: 3774 seconds
#
# Revision: 0
# Processed by: cddbd v1.4PL0 Copyright (c) Steve Scherf et al.
# Submitted via: EasyCDDAExtractor 4.6.0.1
#
DISCID=c30ebc0f
DTITLE=Tiziano Ferro - Rojo Relativo
DYEAR=2003
DGENRE=
TTITLE0=Las cosas que no dices
TTITLE1=Rojo relativo
TTITLE2=Perdona
TTITLE3=Alucinando
TTITLE4=Y mas
TTITLE5=Si no hubieras nacido
TTITLE6=Primavera nunca fue
TTITLE7=El confin
TTITLE8=Boom Boom
TTITLE9=La Olimpiada
TTITLE10=Soul-dier
TTITLE11=II Bimbo dentro
TTITLE12=Perdono (Version en Italiano)
TTITLE13=Imbranato (Version en Italiano)
TTITLE14=Rosso Ralativo (Versionen Italiano)
EXTD=
EXTT0=
EXTT1=
EXTT2=
EXTT3=
EXTT4=
EXTT5=
EXTT6=
EXTT7=
EXTT8=
EXTT9=
EXTT10=
EXTT11=
EXTT12=
EXTT13=
EXTT14=
PLAYORDER=
